<svg version="1.1" xmlns="http://www.w3.org/2000/svg" xmlns:xlink="http://www.w3.org/1999/xlink">
  <g id="symbol">
    <path fill="#e67e22" d="M34.748,29.849c-6.062,0-11.379,4.274-11.379,9.146c0,2.06,1.513,3.498,3.68,3.498    c2.515,0,3.284-1.652,3.963-3.111c0.725-1.556,1.35-2.902,4.008-2.902c2.357,0,3.654,1.137,3.654,3.198    c0,1.771-1.583,2.992-3.416,4.405c-2.136,1.646-4.556,3.514-4.556,6.708c0,1.83,1.274,3.772,3.635,3.772    c2.64,0,3.234-1.567,3.713-2.827c0.18-0.476,0.35-0.925,0.616-1.313c0.367-0.54,1.289-1.194,2.263-1.888    c2.578-1.836,6.107-4.35,6.107-8.857C47.036,32.423,40.416,29.849,34.748,29.849z" transform="translate(-2.299999952316284,-16.6720027923584)"></path>
    <path fill="#e67e22" d="M34.519,56.086c-2.456,0-4.454,1.998-4.454,4.453c0,2.457,1.998,4.455,4.454,4.455    c2.457,0,4.455-1.998,4.455-4.455C38.974,58.084,36.976,56.086,34.519,56.086z" transform="translate(-2.299999952316284,-16.6720027923584)"></path>
    <path fill="#27ae60" d="M63.457,51.732c-1.512,0-2.741,1.229-2.741,2.741s1.229,2.742,2.741,2.742c1.511,0,2.74-1.23,2.74-2.742    S64.968,51.732,63.457,51.732z" transform="translate(-2.299999952316284,-16.6720027923584)"></path>
    <circle fill="#16a085" cx="71.001" cy="54.474" r="2.742" transform="translate(-2.299999952316284,-16.6720027923584)"></circle>
    <path fill="#1abc9c" d="M78.545,51.732c-1.511,0-2.742,1.229-2.742,2.741s1.231,2.742,2.742,2.742s2.741-1.23,2.741-2.742    S80.056,51.732,78.545,51.732z" transform="translate(-2.299999952316284,-16.6720027923584)"></path>
    <path fill="#2c3e50" d="M92.159,65.273c5.15-9.732,3.165-21.549-4.878-28.832c-4.31-3.904-9.912-6.054-15.772-6.054   c-2.988,0-5.929,0.553-8.738,1.644c-0.027,0.01-0.055,0.023-0.083,0.034c-1.065-1.767-2.3-3.428-3.685-4.956   c-6.005-6.633-14.528-10.437-23.384-10.437c-7.582,0-14.828,2.781-20.403,7.83C4.851,33.89,2.3,49.681,9.095,62.161l-2.753,9.224   c-0.286,0.957-0.047,2.014,0.625,2.754c0.668,0.739,1.708,1.084,2.679,0.894l9.41-1.821c5.217,3.586,11.534,5.559,17.82,5.559   c6.512,0,12.713-2.017,17.937-5.831l0.388-0.284c4.254,3.681,9.687,5.706,15.368,5.706c4.748,0,9.533-1.461,13.511-4.121   l6.756,1.309c0.18,0.034,0.363,0.052,0.548,0.052c0.812,0,1.588-0.345,2.131-0.945c0.673-0.741,0.913-1.796,0.626-2.755   L92.159,65.273z M36.874,73.015c-5.51,0-10.986-1.834-15.421-5.164c-0.643-0.482-1.503-0.676-2.274-0.524l-5.965,1.154l1.747-5.853   c0.231-0.772,0.125-1.612-0.288-2.301c-6.202-10.359-4.349-23.631,4.405-31.559c4.515-4.089,10.389-6.341,16.541-6.341   c7.233,0,14.202,3.115,19.118,8.545c1.074,1.184,2.034,2.469,2.873,3.827c-1.525,1.062-2.925,2.28-4.161,3.645   c-7.486,8.268-8.47,20.407-2.393,29.52c0.088,0.131,0.182,0.258,0.273,0.388l-0.094,0.067   C47.042,71.427,42.075,73.015,36.874,73.015z M86.297,65.749l0.969,3.247l-3.3-0.64c-0.783-0.151-1.631,0.042-2.275,0.524   c-3.198,2.403-7.148,3.725-11.123,3.725c-4.428,0-8.656-1.62-11.905-4.562c-0.148-0.134-0.291-0.271-0.47-0.446   c-1-0.976-1.881-2.067-2.619-3.245c-4.29-6.849-3.408-15.915,2.142-22.045c1.044-1.153,2.241-2.18,3.558-3.054   c1.173-0.778,2.432-1.422,3.738-1.917c2.1-0.792,4.286-1.193,6.498-1.193c4.43,0,8.659,1.621,11.91,4.565   c6.306,5.709,7.638,15.273,3.166,22.74C86.171,64.14,86.066,64.979,86.297,65.749z" transform="translate(-2.299999952316284,-16.6720027923584)"></path>
  </g>
</svg>